<svg width="1196" height="1029" viewBox="0 0 1196 1029" fill="none" xmlns="http://www.w3.org/2000/svg">
<g clip-path="url(#clip0_9213_6531)">
<path d="M1174.67 339.241C1183.39 350.433 1166.79 377.524 1138.22 399.543C1109.65 421.562 1079.46 430.34 1070.77 419.05C1068.76 416.466 1060.63 407.809 1061.12 403.761C1062.76 390.423 1084.77 375.842 1106.71 358.919C1127.13 343.167 1146.2 322.733 1159.54 325.488C1167.65 327.268 1172.2 336.071 1174.67 339.241Z" fill="#1843D0"/>
<path opacity="0.2" d="M1159.54 325.586C1169.51 328.951 1171.56 335.34 1174.67 339.241C1177.78 343.143 1177.66 349.653 1174.67 357.042C1174.33 357.944 1173.92 358.846 1173.47 359.773C1170.79 365.194 1167.51 370.297 1163.68 374.988C1163.17 375.671 1162.6 376.33 1162.04 377.012C1157.44 382.481 1152.43 387.6 1147.06 392.326L1145.17 393.959C1142.99 395.837 1140.69 397.715 1138.32 399.543C1135.94 401.372 1133.57 403.103 1131.17 404.737C1130.51 405.225 1129.8 405.688 1129.14 406.151C1123.42 409.973 1117.43 413.38 1111.21 416.344C1110.46 416.734 1109.72 417.051 1109.01 417.393C1103.49 419.936 1097.7 421.85 1091.75 423.099C1090.87 423.294 1090.01 423.44 1089.16 423.562C1080.76 424.805 1074.2 423.562 1070.84 419.148C1068.69 416.368 1060.49 408.297 1061.2 403.884C1062.48 398.666 1065.2 393.91 1069.05 390.155C1069.59 389.546 1070.18 388.936 1070.79 388.302C1079.63 379.182 1093.32 369.404 1106.78 359.041C1122.67 346.849 1140.5 331.755 1153.79 327.025C1154.59 326.731 1155.41 326.479 1156.24 326.269C1157.32 325.961 1158.43 325.733 1159.54 325.586V325.586Z" fill="black"/>
<g opacity="0.2">
<path d="M1069.5 386.303L1070.72 388.302L1091.68 423.099C1090.8 423.294 1089.94 423.44 1089.08 423.562L1068.98 390.107L1067.41 387.668L1069.5 386.303Z" fill="black"/>
</g>
<g opacity="0.2">
<path d="M1089.55 380.498L1111.14 416.343C1110.38 416.733 1109.65 417.05 1108.94 417.391L1087.44 381.742L1089.55 380.498Z" fill="black"/>
</g>
<g opacity="0.2">
<path d="M1126.54 358.406L1146.98 392.349L1145.1 393.983L1124.44 359.65L1126.54 358.406Z" fill="black"/>
</g>
<g opacity="0.2">
<path d="M1109.35 368.672L1131.09 404.736C1130.43 405.224 1129.72 405.687 1129.06 406.15L1107.22 369.915L1109.35 368.672Z" fill="black"/>
</g>
<g opacity="0.2">
<path d="M1143.73 341.947L1163.61 374.988C1163.09 375.671 1162.53 376.329 1161.97 377.012L1141.62 343.215L1143.73 341.947Z" fill="black"/>
</g>
<path d="M1130.81 389.95C1159.36 367.923 1175.45 340.996 1166.75 329.806C1158.05 318.616 1127.85 327.401 1099.29 349.428C1070.74 371.454 1054.65 398.382 1063.35 409.571C1072.05 420.761 1102.25 411.976 1130.81 389.95Z" fill="#1843D0"/>
<path opacity="0.2" d="M1127.27 383.186C1149.86 365.753 1163.2 345.208 1157.04 337.297C1150.89 329.387 1127.59 337.106 1104.99 354.54C1082.39 371.973 1069.06 392.518 1075.21 400.429C1081.36 408.339 1104.67 400.62 1127.27 383.186Z" fill="white"/>
</g>
<g clip-path="url(#clip2_9213_6531)">
<path d="M665.865 978.067C664.437 989.59 639.151 995.65 609.867 991.843C580.582 988.037 558.022 975.634 559.521 964.069C559.854 961.411 560.155 951.696 562.78 949.638C571.447 942.871 592.629 947.181 615.123 950.094C636.06 952.805 658.927 952.028 665.06 961.349C668.723 967.071 666.267 974.801 665.865 978.067Z" fill="#1843D0"/>
<path opacity="0.2" d="M665.003 961.406C668.827 969.123 666.322 974.01 665.865 978.068C665.409 982.126 661.571 985.821 655.567 988.366C654.846 988.69 654.083 988.971 653.292 989.251C648.603 990.834 643.747 991.885 638.818 992.383C638.125 992.48 637.418 992.535 636.697 992.604C630.867 993.102 625.005 993.163 619.161 992.787L617.124 992.64C614.776 992.465 612.357 992.218 609.924 991.901C607.49 991.584 605.113 991.21 602.779 990.766C602.114 990.665 601.435 990.522 600.784 990.407C595.26 989.306 589.821 987.808 584.509 985.926C583.843 985.712 583.235 985.47 582.626 985.256C577.959 983.531 573.498 981.286 569.33 978.562C568.706 978.165 568.125 977.753 567.559 977.327C561.976 973.184 558.896 968.665 559.507 964.169C559.867 961.313 559.787 951.894 562.752 949.751C566.512 947.475 570.84 946.3 575.246 946.36C575.91 946.319 576.603 946.307 577.324 946.295C587.719 946.137 601.301 948.405 615.095 950.207C631.35 952.355 650.404 953.944 660.839 958.906C661.474 959.201 662.093 959.528 662.694 959.887C663.5 960.336 664.272 960.844 665.003 961.406V961.406Z" fill="black"/>
<g opacity="0.2">
<path d="M577.73 944.385L577.282 946.25L569.287 978.518C568.664 978.12 568.083 977.709 567.516 977.283L575.232 946.288L575.735 943.97L577.73 944.385Z" fill="black"/>
</g>
<g opacity="0.2">
<path d="M592.699 952.639L584.466 985.882C583.801 985.668 583.193 985.426 582.584 985.213L590.761 952.139L592.699 952.639Z" fill="black"/>
</g>
<g opacity="0.2">
<path d="M626.903 961.282L619.105 992.758L617.068 992.611L624.965 960.782L626.903 961.282Z" fill="black"/>
</g>
<g opacity="0.2">
<path d="M611.011 957.267L602.737 990.721C602.072 990.621 601.392 990.478 600.742 990.363L609.058 956.753L611.011 957.267Z" fill="black"/>
</g>
<g opacity="0.2">
<path d="M646.378 961.711L638.776 992.339C638.083 992.437 637.376 992.491 636.655 992.56L644.426 961.226L646.378 961.711Z" fill="black"/>
</g>
<path d="M611.125 982.001C640.403 985.793 665.301 979.533 666.735 968.02C668.169 956.506 645.597 944.1 616.319 940.308C587.041 936.517 562.144 942.777 560.71 954.29C559.275 965.803 581.847 978.21 611.125 982.001Z" fill="#1843D0"/>
<path opacity="0.2" d="M612.987 976.037C636.159 979.038 655.767 974.872 656.781 966.733C657.795 958.594 639.831 949.563 616.659 946.562C593.486 943.561 573.879 947.727 572.865 955.866C571.851 964.005 589.814 973.036 612.987 976.037Z" fill="white"/>
</g>
<g clip-path="url(#clip3_9213_6531)">
<path d="M515.955 341.65C508.213 350.149 484.366 340.662 462.939 320.986C441.512 301.309 430.396 278.459 438.138 269.961C439.943 268.005 445.844 260.352 449.02 260.162C459.891 259.597 474.52 275.125 490.977 290.244C506.319 304.282 525.198 316.68 524.808 327.694C524.546 334.389 518.161 339.229 515.955 341.65Z" fill="#1843D0"/>
<path opacity="0.2" d="M524.807 327.694C523.484 336.09 518.722 338.611 515.954 341.65C513.187 344.689 508.052 345.471 501.77 344.106C500.975 343.96 500.189 343.772 499.415 343.541C494.729 342.137 490.214 340.213 485.955 337.804C485.307 337.568 484.733 337.126 484.107 336.771C479.135 333.868 474.387 330.597 469.9 326.986L468.279 325.677C466.488 324.201 464.669 322.629 462.876 320.984C461.084 319.338 459.444 317.622 457.781 316.023L456.376 314.582C452.554 310.558 449.021 306.266 445.805 301.738L444.68 300.104C441.902 296.071 439.592 291.732 437.794 287.171C437.521 286.481 437.279 285.823 437.061 285.153C434.927 278.638 435.119 273.224 438.1 269.947C440.041 267.851 445.355 260.195 448.99 260.13C453.313 260.451 457.46 261.966 460.974 264.505L462.663 265.628C471.054 271.392 480.787 280.956 490.896 290.236C502.809 301.187 517.216 313.301 522.817 323.255C523.153 323.843 523.458 324.447 523.731 325.065C524.159 325.911 524.519 326.79 524.807 327.694V327.694Z" fill="black"/>
<g opacity="0.2">
<path d="M464.174 264.366L462.751 265.619L437.838 287.167C437.565 286.476 437.323 285.818 437.106 285.149L461.025 264.482L462.888 262.885L464.174 264.366Z" fill="black"/>
</g>
<g opacity="0.2">
<path d="M471.517 279.553L445.822 301.807L444.697 300.173L470.218 278.109L471.517 279.553Z" fill="black"/>
</g>
<g opacity="0.2">
<path d="M494.179 305.965L469.9 326.985L468.279 325.676L492.854 304.363L494.179 305.965Z" fill="black"/>
</g>
<g opacity="0.2">
<path d="M483.635 293.679L457.818 316.036L456.413 314.595L482.384 292.104L483.635 293.679Z" fill="black"/>
</g>
<g opacity="0.2">
<path d="M509.599 317.373L485.955 337.803C485.307 337.566 484.734 337.125 484.108 336.77L508.309 315.848L509.599 317.373Z" fill="black"/>
</g>
<path d="M522.339 334.11C514.597 342.608 490.938 333.527 469.499 313.826C448.06 294.124 436.955 271.3 444.716 262.808C452.477 254.316 476.11 263.409 497.556 283.092C519.002 302.775 530.101 325.555 522.339 334.11Z" fill="#1843D0"/>
<path opacity="0.2" d="M515.069 327.342C509.605 333.34 491.406 325.578 474.444 310C457.482 294.421 448.172 276.913 453.637 270.915C459.102 264.917 477.301 272.68 494.282 288.265C511.262 303.85 520.553 321.351 515.069 327.342Z" fill="white"/>
</g>
<g clip-path="url(#clip4_9213_6531)">
<path d="M1119 615.485C1119 615.485 1106.5 621.703 1090.15 631.387C1070.23 643.264 1029.21 666.597 1003 648.16L979 600.888C979 600.888 994.401 607.977 1017.84 604.914C1038.76 602.194 1055.49 591.141 1063.02 586.058C1066.12 583.991 1070.09 581.208 1073.23 579.312C1078.5 576.203 1084.82 571.539 1094.02 567L1119 615.485Z" fill="#EBEBEB"/>
<path d="M1055.16 641.768C1065.62 639.928 1072.69 630.362 1070.95 620.401C1069.21 610.439 1059.32 603.854 1048.86 605.693C1038.4 607.533 1031.33 617.099 1033.07 627.061C1034.81 637.022 1044.7 643.607 1055.16 641.768Z" fill="#F5F5F5"/>
<path d="M1005.68 648.409L1005.99 648.595C1006.76 649.061 1025.47 659.741 1058.81 644.522C1071.26 638.828 1083.24 632.127 1094.61 624.485C1101.83 619.821 1107.01 616.386 1112.77 614.863L1114.32 614.458L1092.74 569.969L1091.51 570.839C1091.16 571.088 1055.97 595.633 1040.29 602.069C1027.9 607.183 1004.3 614.505 986.545 606.344L983.137 604.789L1005.68 648.409ZM1041.22 604.463C1052.55 599.8 1073.14 586.384 1084.6 578.627C1085.67 580.273 1087.28 581.482 1089.16 582.032C1091.24 582.61 1093.46 582.354 1095.36 581.317L1107.18 605.676C1106.23 606.07 1105.38 606.677 1104.7 607.451C1104.02 608.224 1103.53 609.143 1103.26 610.137C1102.77 612.056 1102.88 614.079 1103.57 615.935C1100.47 617.645 1097.11 619.79 1093.22 622.324C1081.96 629.907 1070.1 636.547 1057.75 642.175C1041.01 649.823 1028.18 650.554 1020.37 649.823C1018.33 649.636 1016.3 649.309 1014.31 648.844C1013.72 646.557 1012.45 644.504 1010.66 642.96C1008.88 641.416 1006.67 640.454 1004.33 640.201L991.736 615.857C993.022 615.749 994.71 614.971 995.036 611.707C1011.68 614.863 1030.47 608.862 1041.14 604.463H1041.22Z" fill="#F5F5F5"/>
</g>
<g clip-path="url(#clip5_9213_6531)">
<path d="M1150.46 585.6C1151.78 595.448 1150.8 605.47 1147.57 614.869C1143.2 627.238 1126.88 661.272 1123.79 671.256C1120.4 682.269 1119.36 693.873 1120.74 705.315L1066.1 718.164C1065.3 708.079 1065.65 697.935 1067.15 687.929C1069.66 672.284 1090.52 644.915 1092.94 623.431C1094.5 609.533 1087.15 584.35 1087.15 584.35L1150.46 585.6Z" fill="#1843D0"/>
<g opacity="0.2">
<path d="M1117.71 703.33C1117.72 703.144 1117.39 684.046 1120.55 674.003C1122.75 666.911 1127.86 654.976 1132.8 643.421C1136.51 634.701 1140.09 626.413 1142.28 620.464C1149.31 601.45 1146.86 591.051 1146.75 590.621L1146.51 589.612L1092.82 587.628L1093.32 589.439C1093.42 589.597 1098.52 608.31 1097.45 619.193C1096.03 633.683 1089.63 645.331 1083.46 656.601C1079.04 664.66 1074.88 672.284 1072.36 680.854C1070.11 688.477 1068.74 696.331 1068.26 704.265C1068.06 707.438 1068.06 710.622 1068.29 713.794L1068.45 715.362L1117.71 703.33ZM1100.11 619.433C1100.74 612.949 1099.37 604.164 1098.02 597.646C1099.71 597.88 1101.42 597.5 1102.84 596.574C1104.85 594.541 1104.16 592.258 1101.98 590.761L1136.87 592.104L1136.75 592.352C1134.71 596.937 1140.65 600.061 1144.46 598.251C1144.45 598.372 1144.44 598.493 1144.45 598.615C1143.93 605.763 1142.34 612.794 1139.75 619.477C1137.58 625.364 1134.06 633.599 1130.32 642.322C1129.9 643.329 1129.46 644.33 1129.04 645.323C1128.56 640.611 1124.87 636.205 1115.68 635.405C1107.18 634.681 1098.75 638.841 1093.23 643.598C1096.89 635.982 1099.23 627.801 1100.16 619.402L1100.11 619.433ZM1074.91 681.579C1077.35 673.288 1081.45 665.805 1085.74 657.913L1086.98 655.66C1087.75 658.803 1089.54 661.605 1092.05 663.638C1094.57 665.67 1097.69 666.82 1100.93 666.911C1107.9 666.941 1117.03 665.522 1123.24 659.062C1120.98 664.614 1119.04 669.615 1117.87 673.334C1115.67 680.418 1114.41 691.129 1113.81 697.467C1113.51 697.182 1113.16 696.96 1112.77 696.815C1112.39 696.67 1111.98 696.604 1111.57 696.621C1111.16 696.639 1110.75 696.74 1110.38 696.918C1110.01 697.095 1109.68 697.347 1109.41 697.656C1108.12 698.805 1107.12 701.232 1108.45 702.678L1108.68 702.848L1075.54 710.878C1078.71 707.24 1074.31 703.977 1070.83 706.945C1071.13 698.339 1072.52 689.805 1074.96 681.548L1074.91 681.579Z" fill="white"/>
</g>
</g>
<g clip-path="url(#clip6_9213_6531)">
<path d="M249.629 833.942C249.629 833.942 232.986 837.674 210.746 844.4C183.619 852.664 128.099 868.408 102.473 838.734L87.9988 775.365C87.9988 775.365 104.16 788.34 132.854 791.59C158.436 794.5 181.558 786.263 191.987 782.424C196.272 780.873 201.783 778.703 206.086 777.392C213.25 775.239 222.104 771.54 234.374 768.846L249.629 833.942Z" fill="#EBEBEB"/>
<path d="M166.214 846.463C179.158 847.35 190.366 838.035 191.248 825.657C192.131 813.28 182.354 802.527 169.41 801.64C156.467 800.752 145.259 810.067 144.377 822.445C143.494 834.822 153.271 845.575 166.214 846.463Z" fill="#F5F5F5"/>
<path d="M105.466 839.791L105.797 840.109C106.577 840.892 125.589 859.116 169.614 850.799C186.065 847.682 202.241 843.223 217.984 837.468C227.922 834.038 235.072 831.468 242.355 831.35L244.311 831.324L231.843 771.893L230.135 772.57C229.639 772.761 180.671 791.644 160.18 794.696C143.975 797.141 113.837 798.919 95.2016 783.973L91.6205 781.118L105.466 839.791ZM160.703 797.932C175.508 795.71 203.884 785.789 219.769 779.923C220.571 782.311 222.248 784.298 224.459 785.479C226.669 786.659 229.247 786.945 231.666 786.277L238.409 818.733C237.173 818.934 235.997 819.415 234.972 820.142C233.947 820.869 233.099 821.821 232.494 822.926C231.35 825.069 230.88 827.51 231.147 829.924C226.968 831.049 222.348 832.615 216.988 834.488C201.401 840.208 185.376 844.626 169.077 847.698C146.962 851.88 131.538 848.975 122.478 845.802C120.123 844.98 117.826 843.996 115.605 842.858C115.581 839.96 114.68 837.141 113.024 834.777C111.367 832.414 109.033 830.617 106.332 829.627L98.5648 796.897C100.117 797.164 102.33 796.731 103.699 792.943C122.603 801.625 146.546 799.981 160.703 797.932Z" fill="#F5F5F5"/>
</g>
<g clip-path="url(#clip7_9213_6531)">
<path d="M306.94 904.008C294.391 903.004 282.248 899.089 271.476 892.573C257.357 883.843 219.594 854.521 208.082 848.012C195.145 840.783 181.18 835.572 166.669 832.56L165.491 764.047C178.186 765.778 190.646 768.934 202.635 773.454C221.333 780.774 249.611 814.017 275.533 822.689C292.337 828.368 325.425 826.031 325.425 826.031L306.94 904.008Z" fill="#1843D0"/>
<g opacity="0.2">
<path d="M170.03 829.777L171.267 830.144C171.498 830.144 194.001 836.654 205.629 843.26C213.819 847.896 227.224 857.418 240.185 866.632C250.017 873.624 259.307 880.153 266.068 884.537C287.721 898.329 301.242 898.058 301.821 898.058H303.115L320.094 832.095L317.718 832.23C317.467 832.23 292.936 833.602 279.763 829.352C262.224 823.712 249.514 812.683 237.268 802.001C228.48 794.391 220.193 787.186 210.226 781.759C201.347 776.917 191.944 773.106 182.199 770.401C178.33 769.283 174.386 768.444 170.397 767.89L168.466 767.658L170.03 829.777ZM278.7 832.675C286.523 835.186 297.784 835.843 306.225 835.939C305.523 837.961 305.571 840.169 306.36 842.159C308.292 845.172 311.344 844.94 313.778 842.642L302.768 885.484L302.497 885.252C297.359 881.505 291.893 888.014 293.11 893.21L292.666 893.094C283.892 890.487 275.558 886.58 267.942 881.505C261.239 877.236 251.987 870.669 242.194 863.696L238.833 861.301C244.782 861.977 251.253 858.577 254.691 847.432C257.878 837.117 254.981 825.567 250.577 817.454C258.994 824.072 268.47 829.218 278.604 832.675H278.7ZM208.43 784.811C218.088 790.064 226.2 797.134 234.834 804.648C235.665 805.343 236.476 806.058 237.288 806.772C233.207 806.904 229.281 808.363 226.105 810.929C222.929 813.495 220.677 817.027 219.691 820.989C217.759 829.604 217.103 841.309 223.554 850.716C217.219 846.466 211.559 842.603 207.252 840.227C199.081 835.591 186.159 831.149 178.471 828.638C179.302 828.05 179.867 827.159 180.044 826.157C180.221 825.155 179.996 824.124 179.418 823.287C178.336 821.356 175.555 819.424 173.469 820.757L173.198 820.969L172.136 777.818C175.864 782.666 181.021 778.147 178.278 773.047C188.789 775.668 198.921 779.622 208.43 784.811V784.811Z" fill="white"/>
</g>
</g>
<g clip-path="url(#clip8_9213_6531)">
<path d="M46.9581 462.022C46.9581 462.022 46.4336 411.923 110.551 388.379C113 387.512 115.355 386.398 117.58 385.054C123.999 381.409 129.319 376.096 132.98 369.673C139.064 357.722 147.666 340.594 147.666 340.594L210.042 329.043C210.042 329.043 203.748 356.754 187.97 372.408C172.193 388.063 140.491 391.577 125.426 413.018C117.542 423.655 113.144 436.483 112.838 449.734L46.9581 462.022Z" fill="#EBEBEB"/>
<path d="M151.694 381.645C151.296 384.927 138.812 393.133 123.832 399.992C108.852 406.852 97.0604 409.755 97.459 406.473C97.8577 403.191 110.341 394.963 125.322 388.125C140.302 381.287 152.093 378.362 151.694 381.645Z" fill="#F5F5F5"/>
<path d="M149.617 343.96L149.365 344.57C144.918 355.105 139.547 365.224 133.315 374.806C128.846 381.286 125.741 383.222 120.097 386.61L116.509 388.714C113.129 390.618 109.624 392.291 106.019 393.722C98.0461 397.151 88.1642 401.423 80.2124 407.945L80.0236 408.093C79.7928 408.261 56.9447 425.073 51.7415 454.109L51.4268 455.856L107.802 446.093L107.907 445.167C107.907 444.809 112.103 409.502 144.854 392.838C148.736 390.86 152.365 389.072 155.764 387.388C182.578 374.153 195.922 367.568 206.412 335.291L207.062 333.334L149.617 343.96ZM154.757 385.179C151.358 386.862 147.708 388.672 143.847 390.65C121.608 401.991 112.082 421.622 108.18 433.91C105.344 434.375 102.738 435.755 100.754 437.839C98.7701 439.923 97.5176 442.599 97.1859 445.461L64.1411 451.227C65.1482 443.946 59.945 442.915 57.4273 442.81C62.4487 429.976 70.7568 418.698 81.5132 410.113C89.2971 403.695 99.0952 399.445 106.984 396.057C110.715 394.579 114.34 392.843 117.831 390.86C119.132 390.039 120.307 389.324 121.398 388.756C127.126 385.263 130.587 383.159 135.35 376.258C140.102 369.131 144.31 361.654 147.939 353.891C150.645 353.891 156.939 352.86 160.338 344.528L193.824 338.3C192.858 340.404 192.145 344.612 199.95 345.748C190.257 367.568 177.396 373.985 154.757 385.179Z" fill="#F5F5F5"/>
</g>
<g clip-path="url(#clip9_9213_6531)">
<path d="M1052.43 481L1054.4 484.248C1056.62 487.896 1059.81 490.846 1063.62 492.762L1067 494.429L1063.75 496.404C1060.11 498.605 1057.17 501.803 1055.28 505.621L1053.57 509L1051.64 505.752C1049.4 502.152 1046.19 499.261 1042.38 497.414L1039 495.702L1042.25 493.771C1045.93 491.472 1048.89 488.168 1050.76 484.248L1052.43 481Z" fill="#2353DB"/>
</g>
<g clip-path="url(#clip10_9213_6531)">
<path d="M258.429 307L260.404 310.248C262.615 313.896 265.809 316.846 269.621 318.762L273 320.429L269.752 322.404C266.107 324.605 263.167 327.803 261.282 331.621L259.57 335L257.639 331.752C255.404 328.152 252.193 325.261 248.379 323.414L245 321.702L248.248 319.771C251.934 317.472 254.888 314.168 256.762 310.248L258.429 307Z" fill="#1843D0"/>
</g>
<g clip-path="url(#clip11_9213_6531)">
<path d="M214.429 617L216.404 620.248C218.615 623.896 221.809 626.846 225.621 628.762L229 630.429L225.752 632.404C222.107 634.605 219.167 637.803 217.282 641.621L215.57 645L213.639 641.752C211.404 638.152 208.193 635.261 204.379 633.414L201 631.702L204.248 629.771C207.934 627.472 210.888 624.168 212.762 620.248L214.429 617Z" fill="#2353DB"/>
</g>
<g clip-path="url(#clip12_9213_6531)">
<path d="M1163.43 716L1165.4 719.248C1167.62 722.896 1170.81 725.846 1174.62 727.762L1178 729.429L1174.75 731.404C1171.11 733.605 1168.17 736.803 1166.28 740.621L1164.57 744L1162.64 740.752C1160.4 737.152 1157.19 734.261 1153.38 732.414L1150 730.702L1153.25 728.771C1156.93 726.472 1159.89 723.168 1161.76 719.248L1163.43 716Z" fill="#2353DB"/>
</g>
<g clip-path="url(#clip13_9213_6531)">
<path d="M67.4295 746L69.4044 749.248C71.6151 752.896 74.8094 755.846 78.6207 757.762L82 759.429L78.7523 761.404C75.1068 763.605 72.1675 766.803 70.2821 770.621L68.5705 774L66.6395 770.752C64.4043 767.152 61.1931 764.261 57.3793 762.414L54 760.702L57.2476 758.771C60.9344 756.472 63.8882 753.168 65.7617 749.248L67.4295 746Z" fill="#1843D0"/>
</g>
<g clip-path="url(#clip14_9213_6531)">
<path d="M878.429 288L880.404 291.248C882.615 294.896 885.809 297.846 889.621 299.762L893 301.429L889.752 303.404C886.107 305.605 883.167 308.803 881.282 312.621L879.57 316L877.639 312.752C875.404 309.152 872.193 306.261 868.379 304.414L865 302.702L868.248 300.771C871.934 298.472 874.888 295.168 876.762 291.248L878.429 288Z" fill="#E8E8E8"/>
</g>
<g clip-path="url(#clip15_9213_6531)">
<path d="M360.429 824L362.404 827.248C364.615 830.896 367.809 833.846 371.621 835.762L375 837.429L371.752 839.404C368.107 841.605 365.167 844.803 363.282 848.621L361.57 852L359.639 848.752C357.404 845.152 354.193 842.261 350.379 840.414L347 838.702L350.248 836.771C353.934 834.472 356.888 831.168 358.762 827.248L360.429 824Z" fill="#E8E8E8"/>
</g>
<g clip-path="url(#clip16_9213_6531)">
<path d="M674.429 989L676.404 992.248C678.615 995.896 681.809 998.846 685.621 1000.76L689 1002.43L685.752 1004.4C682.107 1006.6 679.167 1009.8 677.282 1013.62L675.57 1017L673.639 1013.75C671.404 1010.15 668.193 1007.26 664.379 1005.41L661 1003.7L664.248 1001.77C667.934 999.472 670.888 996.168 672.762 992.248L674.429 989Z" fill="#E8E8E8"/>
</g>
<g clip-path="url(#clip17_9213_6531)">
<path d="M849.429 720L851.404 723.248C853.615 726.896 856.809 729.846 860.621 731.762L864 733.429L860.752 735.404C857.107 737.605 854.167 740.803 852.282 744.621L850.57 748L848.639 744.752C846.404 741.152 843.193 738.261 839.379 736.414L836 734.702L839.248 732.771C842.934 730.472 845.888 727.168 847.762 723.248L849.429 720Z" fill="#E8E8E8"/>
</g>
<g clip-path="url(#clip18_9213_6531)">
<path d="M868.3 742.517L840.998 797.323C838.627 802.083 840.446 808.332 845.062 811.282L942.234 873.377C946.85 876.326 952.514 874.858 954.885 870.098L982.187 815.293C984.558 810.533 982.739 804.284 978.123 801.334L880.951 739.239C876.336 736.29 870.672 737.758 868.3 742.517Z" fill="#263238"/>
<path d="M980.16 813.914L955.11 864.21C954.401 865.64 953.425 866.881 952.238 867.863C951.051 868.845 949.677 869.548 948.195 869.932C946.712 870.316 945.15 870.373 943.598 870.101C942.047 869.828 940.536 869.23 939.152 868.342L846.348 809.042C844.841 808.088 843.52 806.805 842.477 805.284C841.061 803.248 840.189 800.859 839.967 798.406C839.745 795.952 840.182 793.538 841.224 791.455L848.27 777.332L866.286 741.143C866.997 739.715 867.974 738.475 869.161 737.495C870.348 736.514 871.721 735.812 873.203 735.428C874.685 735.045 876.246 734.987 877.798 735.258C879.349 735.53 880.86 736.125 882.244 737.011L919.478 760.801L947.16 778.487L975.009 796.307C976.396 797.189 977.629 798.344 978.638 799.707C979.647 801.069 980.413 802.612 980.892 804.248C981.37 805.883 981.551 807.578 981.426 809.237C981.3 810.895 980.87 812.485 980.16 813.914V813.914Z" fill="#1843D0"/>
<path opacity="0.1" d="M919.447 760.815L848.243 777.333L866.286 741.143C866.997 739.715 867.974 738.475 869.161 737.495C870.348 736.514 871.721 735.812 873.203 735.428C874.685 735.045 876.246 734.987 877.798 735.258C879.349 735.53 880.86 736.125 882.244 737.011L919.447 760.815Z" fill="black"/>
<path opacity="0.1" d="M980.16 813.915L955.11 864.211C954.401 865.641 953.425 866.883 952.238 867.865C951.051 868.847 949.677 869.55 948.195 869.933C946.712 870.317 945.15 870.375 943.598 870.102C942.047 869.829 940.536 869.231 939.152 868.344L846.348 809.044C844.841 808.089 843.52 806.806 842.477 805.285L949.322 779.932L975.031 796.36C977.815 798.144 979.918 800.993 980.879 804.283C981.84 807.572 981.581 811.036 980.16 813.915V813.915Z" fill="black"/>
<path d="M875.518 747.247L871.094 756.126C870.208 757.904 870.888 760.239 872.613 761.341L886.335 770.11C888.059 771.212 890.176 770.663 891.061 768.885L895.485 760.006C896.371 758.227 895.691 755.892 893.966 754.79L880.244 746.022C878.52 744.92 876.404 745.468 875.518 747.247Z" fill="white" stroke="#263238" stroke-linecap="round" stroke-linejoin="round"/>
<path d="M873.394 751.488L893.21 764.563" stroke="#263238" stroke-linecap="round" stroke-linejoin="round"/>
<path d="M879.506 765.748L887.152 750.434" stroke="#263238" stroke-linecap="round" stroke-linejoin="round"/>
<path d="M947.81 860.876L946.486 863.445L905.73 837.398L907.028 834.81L947.81 860.876Z" fill="#263238"/>
<path d="M950.045 856.531L948.728 859.096L907.923 833.019L909.205 830.438L950.045 856.531Z" fill="#263238"/>
<path d="M952.291 852.192L950.963 854.752L910.104 828.636L911.394 826.052L952.291 852.192Z" fill="#263238"/>
<path d="M954.53 847.837L953.202 850.397L912.877 824.626L914.159 822.045L954.53 847.837Z" fill="#263238"/>
<path d="M956.947 843.147L955.619 845.707L915.234 819.902L916.523 817.317L956.947 843.147Z" fill="#263238"/>
<path d="M938.575 800.29L937.247 802.85L896.861 777.044L898.151 774.46L938.575 800.29Z" fill="#263238"/>
<path d="M857.225 759.494L855.208 763.543L969.011 836.265L971.028 832.216L857.225 759.494Z" fill="#263238"/>
<path d="M980.16 813.914L955.11 864.21C954.401 865.64 953.425 866.881 952.238 867.863C951.051 868.845 949.677 869.548 948.195 869.932C946.712 870.316 945.15 870.373 943.598 870.101C942.047 869.828 940.536 869.23 939.152 868.342L846.348 809.042C844.841 808.088 843.52 806.805 842.477 805.284C841.061 803.248 840.189 800.859 839.967 798.406C839.745 795.952 840.182 793.538 841.224 791.455L848.27 777.332L866.286 741.143C866.997 739.715 867.974 738.475 869.161 737.495C870.348 736.514 871.721 735.812 873.203 735.428C874.685 735.045 876.246 734.987 877.798 735.258C879.349 735.53 880.86 736.125 882.244 737.011L919.478 760.801L947.16 778.487L975.009 796.307C976.396 797.189 977.629 798.344 978.638 799.707C979.647 801.069 980.413 802.612 980.892 804.248C981.37 805.883 981.551 807.578 981.426 809.237C981.3 810.895 980.87 812.485 980.16 813.914V813.914Z" stroke="#263238" stroke-linecap="round" stroke-linejoin="round"/>
</g>
<g clip-path="url(#clip19_9213_6531)">
<path d="M128.216 542.157L157.125 593.215C159.636 597.649 158.078 603.288 153.646 605.809L60.3412 658.883C55.9093 661.404 50.2812 659.852 47.7704 655.418L18.8616 604.36C16.3509 599.926 17.9083 594.287 22.3402 591.766L115.645 538.692C120.077 536.171 125.705 537.723 128.216 542.157Z" fill="#382633"/>
<path d="M20.8055 603.176L47.3294 650.033C48.0807 651.365 49.0874 652.535 50.2917 653.475C51.4961 654.416 52.8744 655.109 54.3476 655.515C55.8208 655.921 57.3599 656.031 58.8767 655.84C60.3936 655.649 61.8582 655.16 63.1867 654.401L152.297 603.716C153.744 602.9 154.997 601.778 155.966 600.428C157.284 598.622 158.052 596.473 158.18 594.242C158.307 592.01 157.787 589.789 156.683 587.848L149.224 574.69L130.147 540.977C129.394 539.646 128.387 538.478 127.182 537.539C125.978 536.599 124.6 535.907 123.127 535.501C121.655 535.095 120.116 534.985 118.6 535.175C117.084 535.365 115.619 535.852 114.29 536.609L78.5374 556.943L51.9573 572.06L25.2173 587.292C23.8859 588.045 22.7155 589.054 21.7731 590.261C20.8306 591.467 20.1346 592.847 19.7249 594.323C19.3152 595.798 19.1997 597.339 19.3851 598.858C19.5705 600.377 20.0532 601.844 20.8055 603.176V603.176Z" fill="#1843D0"/>
<path opacity="0.1" d="M78.5685 556.956L149.251 574.693L130.147 540.977C129.394 539.646 128.387 538.478 127.182 537.539C125.978 536.599 124.6 535.907 123.127 535.501C121.655 535.095 120.116 534.984 118.6 535.175C117.084 535.365 115.619 535.852 114.29 536.609L78.5685 556.956Z" fill="black"/>
<path opacity="0.1" d="M20.8055 603.177L47.3295 650.034C48.0808 651.366 49.0875 652.536 50.2918 653.477C51.4961 654.418 52.8744 655.111 54.3476 655.517C55.8208 655.922 57.36 656.033 58.8768 655.842C60.3936 655.65 61.8582 655.161 63.1867 654.402L152.297 603.717C153.744 602.902 154.997 601.78 155.966 600.43L49.8835 573.298L25.1974 587.34C22.5244 588.865 20.5617 591.388 19.7387 594.356C18.9157 597.323 19.2993 600.495 20.8055 603.177V603.177Z" fill="black"/>
<path d="M121.29 546.205L125.974 554.477C126.912 556.133 126.33 558.24 124.674 559.182L111.498 566.677C109.842 567.619 107.739 567.039 106.801 565.382L102.118 557.11C101.18 555.454 101.762 553.347 103.417 552.405L116.594 544.91C118.249 543.968 120.352 544.548 121.29 546.205Z" fill="white" stroke="#382633" stroke-linecap="round" stroke-linejoin="round"/>
<path d="M123.539 550.158L104.526 561.357" stroke="#382633" stroke-linecap="round" stroke-linejoin="round"/>
<path d="M118.054 562.95L109.96 548.682" stroke="#382633" stroke-linecap="round" stroke-linejoin="round"/>
<path d="M54.3884 647.26L55.787 649.655L94.9205 627.391L93.5474 624.98L54.3884 647.26Z" fill="#382633"/>
<path d="M52.0272 643.211L53.418 645.602L92.5992 623.313L91.2416 620.908L52.0272 643.211Z" fill="#382633"/>
<path d="M49.6555 639.164L51.0574 641.551L90.2896 619.229L88.9243 616.821L49.6555 639.164Z" fill="#382633"/>
<path d="M47.2902 635.105L48.6921 637.492L87.4117 615.465L86.0541 613.061L47.2902 635.105Z" fill="#382633"/>
<path d="M44.7362 630.733L46.1382 633.12L84.9166 611.063L83.5513 608.655L44.7362 630.733Z" fill="#382633"/>
<path d="M61.2177 592.287L62.6196 594.674L101.398 572.618L100.033 570.21L61.2177 592.287Z" fill="#382633"/>
<path d="M139.747 558.072L141.883 561.844L32.6093 624.001L30.4736 620.229L139.747 558.072Z" fill="#382633"/>
<path d="M20.8055 603.176L47.3294 650.033C48.0807 651.365 49.0874 652.535 50.2917 653.475C51.4961 654.416 52.8744 655.109 54.3476 655.515C55.8208 655.921 57.3599 656.031 58.8767 655.84C60.3936 655.649 61.8582 655.16 63.1867 654.401L152.297 603.716C153.744 602.9 154.997 601.778 155.966 600.428C157.284 598.622 158.052 596.473 158.18 594.242C158.307 592.01 157.787 589.789 156.683 587.848L149.224 574.69L130.147 540.977C129.394 539.646 128.387 538.478 127.182 537.539C125.978 536.599 124.6 535.907 123.127 535.501C121.655 535.095 120.116 534.985 118.6 535.175C117.084 535.365 115.619 535.852 114.29 536.609L78.5374 556.943L51.9573 572.06L25.2173 587.292C23.8859 588.045 22.7155 589.054 21.7731 590.261C20.8306 591.467 20.1346 592.847 19.7249 594.323C19.3152 595.798 19.1997 597.339 19.3851 598.858C19.5705 600.377 20.0532 601.844 20.8055 603.176V603.176Z" stroke="#382633" stroke-linecap="round" stroke-linejoin="round"/>
</g>
<defs>
<clipPath id="clip0_9213_6531">
<rect width="116" height="99" fill="white" transform="translate(1061 325)"/>
</clipPath>
<clipPath id="clip1_9213_6531">
<rect width="82.0202" height="70" fill="white" transform="translate(240 -20)"/>
</clipPath>
<clipPath id="clip2_9213_6531">
<rect width="95" height="81" fill="white" transform="translate(608.276 904) rotate(45)"/>
</clipPath>
<clipPath id="clip3_9213_6531">
<rect width="102.397" height="65" fill="white" transform="translate(443.293 254) rotate(20.058)"/>
</clipPath>
<clipPath id="clip4_9213_6531">
<rect width="140" height="88" fill="white" transform="translate(979 567)"/>
</clipPath>
<clipPath id="clip5_9213_6531">
<rect width="121.227" height="140" fill="white" transform="translate(1133.6 557) rotate(59.4735)"/>
</clipPath>
<clipPath id="clip6_9213_6531">
<rect width="171" height="108" fill="white" transform="translate(98.0181 735) rotate(13.9401)"/>
</clipPath>
<clipPath id="clip7_9213_6531">
<rect width="159.934" height="140" fill="white" transform="translate(165.491 764.008)"/>
</clipPath>
<clipPath id="clip8_9213_6531">
<rect width="163" height="133" fill="white" transform="translate(47 329)"/>
</clipPath>
<clipPath id="clip9_9213_6531">
<rect width="28" height="28" fill="white" transform="translate(1039 481)"/>
</clipPath>
<clipPath id="clip10_9213_6531">
<rect width="28" height="28" fill="white" transform="translate(245 307)"/>
</clipPath>
<clipPath id="clip11_9213_6531">
<rect width="28" height="28" fill="white" transform="translate(201 617)"/>
</clipPath>
<clipPath id="clip12_9213_6531">
<rect width="28" height="28" fill="white" transform="translate(1150 716)"/>
</clipPath>
<clipPath id="clip13_9213_6531">
<rect width="28" height="28" fill="white" transform="translate(54 746)"/>
</clipPath>
<clipPath id="clip14_9213_6531">
<rect width="28" height="28" fill="white" transform="translate(865 288)"/>
</clipPath>
<clipPath id="clip15_9213_6531">
<rect width="28" height="28" fill="white" transform="translate(347 824)"/>
</clipPath>
<clipPath id="clip16_9213_6531">
<rect width="28" height="28" fill="white" transform="translate(661 989)"/>
</clipPath>
<clipPath id="clip17_9213_6531">
<rect width="28" height="28" fill="white" transform="translate(836 720)"/>
</clipPath>
<clipPath id="clip18_9213_6531">
<rect width="130" height="158.635" fill="white" transform="translate(820 757.59) rotate(-23.2047)"/>
</clipPath>
<clipPath id="clip19_9213_6531">
<rect width="130" height="142.308" fill="white" transform="matrix(-0.919103 -0.394018 -0.394018 0.919103 176.306 557.719)"/>
</clipPath>
</defs>
</svg>
